<?xml version="1.0" encoding="utf-8" ?>
<svg xmlns="http://www.w3.org/2000/svg" xmlns:xlink="http://www.w3.org/1999/xlink" width="500" height="301">
    <path fill="#030119"
          d="M318.304 128.096C319.888 129.916 318.435 136.169 319.375 137.113C320.639 138.381 323.9 137.384 325.153 138.489C325.017 138.815 324.94 138.975 324.652 139.185C322.655 139.526 320.199 139.204 318.159 139.133C318.996 137.736 318.467 130.055 318.304 128.096Z"/>
    <path fill="#030119"
          d="M353.425 272.081C362.288 271.791 371.238 272.096 380.113 272.094L435.523 272.094L476.138 272.094C483.166 272.091 490.41 271.739 497.413 272.165C497.709 272.76 497.561 273.515 497.375 274.139C497.302 274.386 497.207 274.574 497.085 274.8C497.117 274.175 497.17 273.735 496.858 273.177C494.362 272.83 491.503 273.234 488.961 273.186C480.179 273.021 471.423 273.045 462.64 273.004L387.913 272.969C377.248 272.962 366.495 273.427 355.844 273.012C354.634 272.965 354.27 272.998 353.425 272.081Z"/>
    <path fill="#22217B"
          d="M203.759 117.162C202.874 117.646 202.229 118.679 201.483 119.38C197.024 123.567 192.228 125.821 186.026 125.595C180.122 125.379 174.8 122.789 170.822 118.458C166.402 113.645 164.046 106.74 164.356 100.222C164.651 94.0325 167.701 87.8501 172.274 83.7262C175.481 80.8342 180.252 78.3104 184.606 77.9973C186.972 77.8272 189.46 78.1389 191.831 78.2617C198.09 80.5884 204.189 85.5814 206.979 91.7083C209.587 97.4348 209.629 104.284 207.412 110.139C206.587 112.316 205.323 115.456 203.759 117.162Z"/>
    <path fill="#22217B"
          d="M203.517 187.465C203.498 187.452 203.478 187.44 203.461 187.426C191.441 177.647 182.209 166.003 179.872 150.195C179.038 144.556 179.929 138.68 183.422 134.04C184.777 132.239 186.837 129.985 189.219 129.693C190.56 129.529 192.136 130.11 193.322 130.693C204.546 136.212 202.983 156.482 213.351 164.551C215.156 165.956 217.537 167.328 219.91 166.975C228.228 165.74 242.058 151.475 246.969 145.039C249.682 141.483 252.062 137.476 254.099 133.496C255.063 131.613 256.023 129.718 256.84 127.766C257.638 125.857 258.856 121.421 260.021 119.951C260.081 119.875 260.145 119.801 260.207 119.727L260.146 119.714C260.201 119.8 260.299 119.943 260.34 120.047C260.873 121.433 260.625 124.251 260.685 125.829C260.779 128.33 260.917 130.918 260.588 133.407C258.87 146.412 250.644 163.533 241.917 173.176C239.602 175.735 237.008 178.183 234.311 180.342C232.77 181.574 229.044 183.47 228.312 185.186C222.79 187.477 216.176 190.477 210.048 189.396C207.842 189.006 205.709 187.688 203.517 187.465Z"/>
    <path fill="#22217B"
          d="M100.211 69.3535C104.46 69.1075 108.452 69.399 112.568 70.533C125.382 74.0628 139.332 82.7993 145.996 94.5773C148.758 99.4592 150.644 104.705 149.027 110.35C148.292 112.918 147.019 115.678 144.557 116.991C143.051 117.794 141.341 117.867 139.669 117.782C131.508 117.368 125.838 110.147 120.501 104.825C118.152 102.482 115.692 100.174 113.061 98.1487C109.557 95.4506 105.772 93.6849 101.536 92.4539C97.8554 93.1705 95.0221 94.7986 92.0748 97.0354C82.9854 105.302 78.4416 121.432 75.1063 132.986C73.4399 138.759 71.8336 144.344 70.6823 150.253C70.2861 144.967 69.9535 139.734 69.4356 134.449C68.9491 129.486 68.9791 124.458 69.0757 119.475C69.368 104.407 71.6487 92.2185 81.535 80.2279C86.2237 74.5411 92.7511 70.0607 100.211 69.3535Z"/>
    <path fill="#020126"
          d="M228.312 185.186C232.62 184.539 236.949 184.855 241.285 184.838C237.935 212.336 227.434 239.179 208.481 259.714C205.564 262.874 202.328 266.709 198.819 269.187C198.775 269.219 198.726 269.243 198.68 269.27C195.507 272.374 183.911 280.86 179.891 282.057C179.045 280.508 179.509 271.872 179.551 269.643C179.38 264.173 179.526 258.649 179.519 253.174C179.514 249.857 179.149 246.07 179.677 242.808L179.708 242.623C179.836 241.833 180.115 241.225 180.547 240.554C181.951 238.374 183.825 236.435 185.361 234.336C188.157 230.518 190.917 225.986 193.004 221.742C196.379 214.882 199.014 207.196 200.816 199.755C201.805 195.675 202.467 191.541 203.517 187.465C205.709 187.688 207.842 189.006 210.048 189.396C216.176 190.477 222.79 187.477 228.312 185.186Z"/>
    <path fill="#030119"
          d="M179.551 269.643L179.599 269.42C179.777 268.568 179.604 266.24 180.005 265.674C181.236 267.548 180.125 270.953 180.62 273.108C180.707 271.279 180.802 269.453 180.808 267.621L181 267.603L181.008 267.749L180.705 267.808L181.037 267.901C181.15 269.503 181.494 277.077 180.862 278.141C180.412 277.547 180.564 275.759 180.545 274.973L180.495 277.735L179.99 277.852L179.949 277.96L180.408 277.969C180.322 277.36 180.356 275.376 180.043 275.011C180.111 276.222 179.773 279.57 180.098 280.39C180.186 279.823 180.263 279.262 180.431 278.712L180.571 280.123C180.693 279.602 180.721 279.252 180.639 278.722L180.87 278.716C181.025 279.461 180.843 280.63 181.284 281.187C182.346 280.857 183.447 279.651 184.403 279.017C188.012 276.622 192.272 274.348 195.382 271.324C196.044 270.679 197.638 268.638 198.549 269.055L198.68 269.27C195.507 272.374 183.911 280.86 179.891 282.057C179.045 280.508 179.509 271.872 179.551 269.643Z"/>
    <path fill="#020126"
          d="M179.494 20.0321C182.112 21.9217 184.951 23.4772 187.647 25.2492C192.098 28.174 196.439 31.4662 200.441 34.976C222.433 54.2648 235.806 83.5556 240.431 112.103C241.316 117.565 242.096 123.233 242.565 128.742C242.862 132.237 242.798 135.787 243.28 139.261L205.507 139.249C204.686 131.945 204.345 124.497 203.759 117.162C205.323 115.456 206.587 112.316 207.412 110.139C209.629 104.284 209.587 97.4348 206.979 91.7083C204.189 85.5814 198.09 80.5884 191.831 78.2617C189.716 75.3667 187.998 72.2223 185.966 69.275C184.217 66.7377 181.145 63.928 180.089 61.0858C178.687 57.3103 179.818 27.1501 179.494 20.0321Z"/>
    <path fill="#22217B"
          d="M85.2179 162.594C92.9772 159.986 99.1913 163.171 106.11 166.596C113.999 170.502 119.684 176.494 126.62 181.663C126.653 181.709 126.686 181.755 126.72 181.801C128.637 184.334 131.622 186.554 133.888 188.829C141.909 196.882 159.261 214.357 157.726 226.446C156.783 233.866 149.6 241.603 143.888 245.951C133.572 253.802 120.348 257.31 108.112 260.902C104.36 262.003 100.478 263.43 96.6486 264.183C91.6532 265.165 86.5375 265.469 81.4749 265.9C78.4469 266.158 75.3009 266.726 72.2743 266.284C71.4994 266.171 70.646 266.074 70.1468 265.411L70.2865 264.931C77.1347 261.549 84.0114 258.209 90.7272 254.568C97.094 251.116 103.392 247.321 109.631 243.635C113.936 241.092 118.707 238.683 122.701 235.704C125.189 233.848 129.079 230.582 130.161 227.644C130.549 226.59 130.338 225.126 130.22 224.019C127.602 219.719 122.214 217.251 118.117 214.554C115.367 217.773 111.441 220.523 108.205 223.253C105.133 225.843 102.24 228.629 99.0763 231.111C96.8713 232.841 94.2827 234.467 92.2697 236.389C89.1081 238.047 86.3137 240.544 83.3204 242.503C70.8805 250.689 58.3329 258.706 46.0685 267.156C44.0855 268.522 40.896 270.013 39.4243 271.869C38.314 273.171 32.8824 275.929 31.1464 277.024C23.5226 281.832 16.0791 287.074 8.20458 291.473C7.24942 292.006 6.27126 292.353 5.22572 292.666C8.10758 289.92 10.6422 286.833 13.3599 283.928C15.878 281.236 18.6006 278.703 21.0006 275.905C23.4462 273.054 25.7023 270.041 28.1198 267.166C29.4028 265.64 30.8965 264.258 32.1216 262.694C33.1198 261.419 34.4894 258.399 35.823 257.75C37.3362 256.861 46.4822 245.833 48.3161 243.771C62.6556 227.65 77.4443 212.021 90.9089 195.133C87.8189 193.177 84.4305 189.354 82.4213 186.298C79.4825 181.828 78.4242 175.839 79.541 170.587C80.3195 166.926 82.1023 164.591 85.2179 162.594Z"/>
    <path fill="#020126"
          d="M326.829 2.25676C332.622 2.1211 338.423 2.17615 344.217 2.16625C347.148 2.16124 350.432 1.86916 353.309 2.27478C353.647 2.87509 353.621 3.59184 353.423 4.26406C353.37 4.44475 353.295 4.62162 353.22 4.79433C354.002 6.41859 353.487 43.8967 353.487 48.2831L353.472 217.317L353.53 256.56C353.543 261.185 354.336 267.637 353.425 272.081C354.27 272.998 354.634 272.965 355.844 273.012C366.495 273.427 377.248 272.962 387.913 272.969L462.64 273.004C471.423 273.045 480.179 273.021 488.961 273.186C491.503 273.234 494.362 272.83 496.858 273.177C497.17 273.735 497.117 274.175 497.085 274.8C497.295 275.133 497.422 275.443 497.459 275.835C497.945 280.976 497.495 287.08 497.429 292.306C497.398 294.734 497.666 297.628 497.326 299.997C497.273 300.365 497.026 300.706 496.812 301L495.436 301L318.709 301L318.74 300.711C318.039 299.032 318.458 283.214 318.462 280.361C318.474 271.718 318.983 186.574 318.077 184.777L325.467 184.79C325.864 184.087 326 141.477 325.483 139.56L324.652 139.185C324.94 138.975 325.017 138.815 325.153 138.489C323.9 137.384 320.639 138.381 319.375 137.113C318.435 136.169 319.888 129.916 318.304 128.096C318.794 125.408 318.452 122.205 318.454 119.442L318.46 100.981L318.463 29.0131C318.46 24.8899 318.891 4.0123 318.065 2.11694C320.973 2.35323 323.912 2.04405 326.829 2.25676ZM318.74 300.711L318.709 301L495.436 301C495.407 300.964 495.385 300.92 495.348 300.893C495.334 300.882 494.909 300.648 494.882 300.641C493.727 300.327 486.996 300.748 485.233 300.745L444.769 300.73L361.826 300.717L329.681 300.707C326.054 300.734 322.352 300.538 318.74 300.711Z"/>
    <path fill="#030119"
          d="M326.829 2.25676C332.622 2.1211 338.423 2.17615 344.217 2.16625C347.148 2.16124 350.432 1.86916 353.309 2.27478C353.647 2.87509 353.621 3.59184 353.423 4.26406C353.37 4.44475 353.295 4.62162 353.22 4.79433C353.115 4.42729 353.026 3.97314 352.802 3.66111C352.382 3.07912 350.791 2.88371 350.086 2.83661C343.127 2.3715 335.567 4.22506 328.683 2.67838L330.235 2.84575C329.152 2.42677 327.974 2.67189 326.829 2.25676Z"/>
    <path fill="#020126" fill-opacity="0.94509804"
          d="M318.74 300.711C322.352 300.538 326.054 300.734 329.681 300.707L361.826 300.717L444.769 300.73L485.233 300.745C486.996 300.748 493.727 300.327 494.882 300.641C494.909 300.648 495.334 300.882 495.348 300.893C495.385 300.92 495.407 300.964 495.436 301L318.709 301L318.74 300.711Z"/>
    <path fill="#020126"
          d="M1.0807 2.26893C21.0524 1.94657 41.0848 2.2444 61.0619 2.23917L86.5496 2.2379C91.133 2.23867 95.7861 2.08027 100.362 2.29846C103.217 2.43459 106.058 2.79686 108.914 2.93958C112.821 3.13483 116.782 3.10891 120.673 3.49424C124.96 3.91878 129.194 4.85049 133.492 5.18084L133.501 35.9882C129.21 34.7839 124.616 34.3472 120.204 33.7461C98.1067 30.736 75.4237 31.7554 53.1693 31.7966C47.514 31.8071 41.8212 31.9631 36.1711 31.7246C36.4033 36.4771 36.0548 41.424 36.0484 46.199L36.0424 79.3277L36.046 183.002L36.0906 234.099L36.1412 247.859C36.1568 251.123 36.4029 254.531 35.823 257.75C34.4894 258.399 33.1198 261.419 32.1216 262.694C30.8965 264.258 29.4028 265.64 28.1198 267.166C25.7023 270.041 23.4462 273.054 21.0006 275.905C18.6006 278.703 15.878 281.236 13.3599 283.928C10.6422 286.833 8.10758 289.92 5.22572 292.666C6.27126 292.353 7.24942 292.006 8.20458 291.473C16.0791 287.074 23.5226 281.832 31.1464 277.024C32.8824 275.929 38.314 273.171 39.4243 271.869L41.1257 271.41C46.633 270.646 52.4704 271.141 58.0307 271.142C69.4985 271.143 81.0092 271.261 92.4718 271.052C100.057 270.914 107.998 270.843 115.524 269.93C121.549 269.199 127.464 267.749 133.519 267.182C133.507 269.629 133.69 272.243 133.459 274.669C133.588 282.426 133.351 290.196 133.524 297.95C128.906 298.177 124.381 299.5 119.77 299.866C115.829 300.179 111.869 300.357 107.918 300.465C105.409 300.534 102.814 300.432 100.326 300.75L100.278 301L2.40298 301L1.4573 301C0.548625 297.777 1.14437 282.178 1.1658 277.794L1.21296 237.959L1.20495 83.0601L1.20202 31.3615C1.19888 21.7 1.41651 11.9169 1.0807 2.26893ZM2.40298 301L100.278 301L100.326 300.75C98.895 300.624 97.5121 300.816 96.0842 300.81L82.3241 300.858C74.3773 300.859 4.46918 300.162 2.40298 301Z"/>
    <path fill="#020126" fill-opacity="0.9137255"
          d="M2.40298 301C4.46918 300.162 74.3773 300.859 82.3241 300.858L96.0842 300.81C97.5121 300.816 98.895 300.624 100.326 300.75L100.278 301L2.40298 301Z"/>
    <path fill="#030119"
          d="M41.1257 271.41C46.633 270.646 52.4704 271.141 58.0307 271.142C69.4985 271.143 81.0092 271.261 92.4718 271.052C100.057 270.914 107.998 270.843 115.524 269.93C121.549 269.199 127.464 267.749 133.519 267.182C133.507 269.629 133.69 272.243 133.459 274.669C132.283 273.351 133.458 270.117 133.123 268.46C131.292 268.044 120.968 270.163 118.128 270.473C115.856 270.722 113.819 270.094 111.61 270.931C112.207 270.95 112.772 270.974 113.359 271.093C112.809 271.451 112.339 271.379 111.689 271.378C110.343 271.375 109.03 271.048 107.693 270.957C105.563 270.812 103.406 271.011 101.281 271.161C102.906 271.633 105.606 271.228 107.388 271.277L107.632 271.568L107.508 271.302L107.316 271.264L107.395 271.46C106.618 271.624 105.836 271.763 105.049 271.87C102.493 272.218 99.9274 272.027 97.357 272.065C90.6725 272.166 83.9841 272.102 77.2987 272.116L55.622 272.137C51.2984 272.139 46.9953 272.444 42.6684 272.077C42.0269 272.022 41.6295 271.796 41.1257 271.41Z"/>
</svg>
